<svg width="10" height="14" viewBox="0 0 10 14" fill="none" xmlns="http://www.w3.org/2000/svg">
<path d="M9.68063 4.93214C9.60939 4.99065 8.35155 5.74082 8.35155 7.40889C8.35155 9.33829 9.95209 10.0209 10 10.0378C9.99263 10.0794 9.74573 10.9725 9.15613 11.8826C8.63039 12.6835 8.08132 13.4831 7.24604 13.4831C6.41076 13.4831 6.1958 12.9695 5.23154 12.9695C4.29185 12.9695 3.95774 13.5 3.19371 13.5C2.42968 13.5 1.89657 12.7589 1.28362 11.8488C0.573638 10.7801 0 9.11986 0 7.54411C0 5.01665 1.55263 3.67622 3.0807 3.67622C3.89264 3.67622 4.56946 4.24047 5.07923 4.24047C5.56443 4.24047 6.32109 3.64242 7.24481 3.64242C7.59489 3.64242 8.85272 3.67622 9.68063 4.93214ZM6.80629 2.57241C7.18831 2.09266 7.45854 1.42699 7.45854 0.761326C7.45854 0.669017 7.45117 0.575408 7.4352 0.5C6.81366 0.524703 6.07419 0.938144 5.6283 1.4855C5.27822 1.90674 4.95148 2.57241 4.95148 3.24717C4.95148 3.34859 4.96745 3.45 4.97482 3.4825C5.01412 3.4903 5.078 3.4994 5.14187 3.4994C5.69954 3.4994 6.40093 3.10416 6.80629 2.57241Z" fill="black"/>
</svg>
