<svg width="14" height="14" viewBox="0 0 14 14" fill="none" xmlns="http://www.w3.org/2000/svg">
<path d="M13.3619 7.14621C13.3619 6.71829 13.324 6.31204 13.259 5.91663H7.13818V8.35954H10.6428C10.4857 9.16121 10.0253 9.83829 9.34277 10.2987V11.9237H11.4336C12.6578 10.7916 13.3619 9.12329 13.3619 7.14621Z" fill="#4285F4"/>
<path d="M7.13816 13.4999C8.89317 13.4999 10.3611 12.9149 11.4336 11.9237L9.34275 10.2987C8.75775 10.6887 8.01567 10.927 7.13816 10.927C5.44275 10.927 4.00733 9.78411 3.49275 8.24036H1.33691V9.91411C2.404 12.0374 4.59775 13.4999 7.13816 13.4999Z" fill="#34A853"/>
<path d="M3.49277 8.2404C3.35735 7.8504 3.28693 7.43331 3.28693 6.99998C3.28693 6.56665 3.36277 6.14957 3.49277 5.75957V4.08582H1.33693C0.892766 4.96332 0.638184 5.94915 0.638184 6.99998C0.638184 8.05081 0.892766 9.03665 1.33693 9.91415L3.49277 8.2404Z" fill="#FBBC05"/>
<path d="M7.13816 3.07292C8.09691 3.07292 8.95275 3.40334 9.62983 4.04792L11.4823 2.19542C10.3611 1.14458 8.89317 0.5 7.13816 0.5C4.59775 0.5 2.404 1.9625 1.33691 4.08583L3.49275 5.75958C4.00733 4.21584 5.44275 3.07292 7.13816 3.07292Z" fill="#EA4335"/>
</svg>
