<svg width="13" height="14" viewBox="0 0 13 14" fill="none" xmlns="http://www.w3.org/2000/svg">
<g clip-path="url(#clip0_32_177)">
<path d="M10.3384 1.51193C9.73854 0.828261 8.65427 0.535156 7.26722 0.535156H3.24151C2.95772 0.535156 2.71657 0.741548 2.67214 1.02139L0.995929 11.6523C0.962605 11.862 1.12492 12.0519 1.33741 12.0519H3.8227L4.44689 8.09281L4.42754 8.21679C4.47198 7.93694 4.71133 7.73055 4.99476 7.73055H6.17578C8.49589 7.73055 10.3126 6.78817 10.8432 4.06209C10.859 3.98146 10.8726 3.90299 10.8844 3.82631C10.8174 3.79084 10.8174 3.79084 10.8844 3.82631C11.0425 2.81872 10.8834 2.1329 10.3384 1.51193Z" fill="#27346A"/>
<path d="M5.39787 3.46333C5.46416 3.4318 5.53797 3.41425 5.61537 3.41425H8.77144C9.14517 3.41425 9.49381 3.43861 9.81236 3.48985C9.90373 3.50454 9.99223 3.52138 10.0782 3.54073C10.1642 3.55972 10.2477 3.58122 10.3287 3.60487C10.3692 3.6167 10.409 3.62888 10.448 3.64178C10.6046 3.69409 10.7504 3.75501 10.8844 3.82631C11.0425 2.81836 10.8834 2.1329 10.3384 1.51193C9.73818 0.828261 8.65427 0.535156 7.26722 0.535156H3.24115C2.95772 0.535156 2.71657 0.741548 2.67214 1.02139L0.995929 11.652C0.962605 11.862 1.12492 12.0515 1.33705 12.0515H3.8227L5.11767 3.83957C5.14418 3.67116 5.25239 3.53321 5.39787 3.46333Z" fill="#27346A"/>
<path d="M10.8433 4.06207C10.3126 6.7878 8.49594 7.73053 6.17583 7.73053H4.99445C4.71102 7.73053 4.47167 7.93692 4.42759 8.21677L3.65112 13.1393C3.62209 13.3228 3.76399 13.4891 3.9496 13.4891H6.04468C6.29264 13.4891 6.50369 13.3085 6.54239 13.0637L6.56281 12.957L6.95768 10.4545L6.98312 10.3162C7.02182 10.0714 7.23287 9.89083 7.48083 9.89083H7.79435C9.82387 9.89083 11.413 9.06634 11.8774 6.68173C12.0712 5.68525 11.9709 4.85323 11.4582 4.26882C11.3026 4.09181 11.1095 3.94561 10.8845 3.82629C10.8723 3.90333 10.8591 3.98145 10.8433 4.06207Z" fill="#2790C3"/>
<path d="M10.329 3.60481C10.248 3.58116 10.1645 3.55966 10.0785 3.54067C9.99254 3.52168 9.90368 3.50484 9.81267 3.49015C9.49376 3.43855 9.14548 3.41418 8.77139 3.41418H5.61568C5.53793 3.41418 5.46411 3.43174 5.39818 3.46363C5.25235 3.5335 5.14449 3.6711 5.11798 3.83987L4.44721 8.09275L4.42786 8.21673C4.47193 7.93688 4.71129 7.73049 4.99472 7.73049H6.17609C8.4962 7.73049 10.3129 6.78811 10.8435 4.06202C10.8593 3.9814 10.8726 3.90329 10.8848 3.82625C10.7504 3.7553 10.6049 3.69403 10.4483 3.64208C10.4093 3.62918 10.3695 3.61663 10.329 3.60481Z" fill="#1F264F"/>
</g>
<defs>
<clipPath id="clip0_32_177">
<rect width="11.0199" height="13" fill="white" transform="translate(0.990112 0.5)"/>
</clipPath>
</defs>
</svg>
